<svg width="96" height="96" viewBox="18 36 84 84" fill="none" xmlns="http://www.w3.org/2000/svg">

<path d="M76.5407 112.054H43.4596C42.1693 112.054 40.932 111.542 40.0196 110.629C39.1073 109.717 38.5947 108.48 38.5947 107.189V54.6488C38.5947 53.3586 39.1073 52.1212 40.0196 51.2088C40.932 50.2965 42.1693 49.7839 43.4596 49.7839H76.5407C77.8309 49.7839 79.0683 50.2965 79.9806 51.2088C80.893 52.1212 81.4055 53.3586 81.4055 54.6488V107.189C81.4055 108.48 80.893 109.717 79.9806 110.629C79.0683 111.542 77.8309 112.054 76.5407 112.054ZM43.4596 51.7299C42.6854 51.7299 41.943 52.0374 41.3956 52.5848C40.8482 53.1322 40.5407 53.8747 40.5407 54.6488V107.189C40.5407 107.963 40.8482 108.706 41.3956 109.253C41.943 109.801 42.6854 110.108 43.4596 110.108H76.5407C77.3148 110.108 78.0573 109.801 78.6047 109.253C79.1521 108.706 79.4596 107.963 79.4596 107.189V54.6488C79.4596 53.8747 79.1521 53.1322 78.6047 52.5848C78.0573 52.0374 77.3148 51.7299 76.5407 51.7299H43.4596Z" fill="black"></path>
<path d="M69.7298 51.7298H50.2703C50.0123 51.7298 49.7648 51.6273 49.5823 51.4449C49.3999 51.2624 49.2974 51.0149 49.2974 50.7569V44.919C49.2974 44.661 49.3999 44.4135 49.5823 44.231C49.7648 44.0486 50.0123 43.946 50.2703 43.946H69.7298C69.9878 43.946 70.2353 44.0486 70.4178 44.231C70.6003 44.4135 70.7028 44.661 70.7028 44.919V50.7569C70.7028 51.0149 70.6003 51.2624 70.4178 51.4449C70.2353 51.6273 69.9878 51.7298 69.7298 51.7298ZM51.2433 49.7839H68.7568V45.892H51.2433V49.7839ZM57.0811 94.5406C56.9579 94.5409 56.8358 94.5178 56.7211 94.4725C56.5047 94.3856 56.3267 94.2238 56.2196 94.0167C56.1124 93.8095 56.0832 93.5707 56.1374 93.3439L58.7741 81.892H53.1893C53.0374 81.8909 52.8879 81.8542 52.7527 81.7849C52.6176 81.7157 52.5005 81.6157 52.4109 81.4931C52.3202 81.3722 52.259 81.2319 52.232 81.0833C52.205 80.9347 52.2129 80.7819 52.2552 80.6369L56.1471 67.9882C56.2078 67.7879 56.3314 67.6125 56.4997 67.4881C56.668 67.3636 56.8719 67.2968 57.0811 67.2974H63.892C64.0373 67.2969 64.1809 67.329 64.3123 67.3913C64.4436 67.4536 64.5593 67.5445 64.6509 67.6574C64.7437 67.7716 64.8095 67.9053 64.8432 68.0485C64.8769 68.1918 64.8777 68.3408 64.8455 68.4844L63.1622 76.0542H66.8109C66.9826 76.0542 67.1513 76.0997 67.2997 76.186C67.4482 76.2723 67.5712 76.3964 67.6562 76.5456C67.7412 76.6948 67.7851 76.8639 67.7836 77.0356C67.7821 77.2073 67.7352 77.3756 67.6476 77.5233L57.9179 94.0639C57.8318 94.2091 57.7094 94.3295 57.5626 94.413C57.4159 94.4966 57.25 94.5406 57.0811 94.5406ZM54.5028 79.946H60.0001C60.1491 79.942 60.297 79.9723 60.4324 80.0345C60.5678 80.0967 60.6872 80.1892 60.7812 80.3049C60.8752 80.4205 60.9414 80.5562 60.9747 80.7015C61.0079 80.8468 61.0074 80.9978 60.973 81.1428L59.4844 87.6131L65.1082 78.0001H61.946C61.8007 78.0006 61.657 77.9685 61.5257 77.9062C61.3944 77.8439 61.2787 77.753 61.1871 77.6401C61.0942 77.5259 61.0285 77.3922 60.9948 77.2489C60.961 77.1057 60.9603 76.9567 60.9925 76.8131L62.6757 69.2433H57.8109L54.5028 79.946Z" fill="black"></path>
</svg>
